<?xml version="1.0" encoding="UTF-8" standalone="no"?>
<svg
   xmlns:dc="http://purl.org/dc/elements/1.1/"
   xmlns:cc="http://creativecommons.org/ns#"
   xmlns:rdf="http://www.w3.org/1999/02/22-rdf-syntax-ns#"
   xmlns:svg="http://www.w3.org/2000/svg"
   xmlns="http://www.w3.org/2000/svg"
   xmlns:sodipodi="http://sodipodi.sourceforge.net/DTD/sodipodi-0.dtd"
   xmlns:inkscape="http://www.inkscape.org/namespaces/inkscape"
   version="1.1"
   viewBox="0.0 0.0 348.0 348.0"
   fill="none"
   stroke="none"
   stroke-linecap="square"
   stroke-miterlimit="10"
   id="svg19"
   sodipodi:docname="ShapesAndBombs.svg"
   inkscape:version="0.92.3 (2405546, 2018-03-11)">
  <metadata
     id="metadata25">
    <rdf:RDF>
      <cc:Work
         rdf:about="">
        <dc:format>image/svg+xml</dc:format>
        <dc:type
           rdf:resource="http://purl.org/dc/dcmitype/StillImage" />
      </cc:Work>
    </rdf:RDF>
  </metadata>
  <defs
     id="defs23">
    <marker
       inkscape:stockid="Arrow1Lend"
       orient="auto"
       refY="0.0"
       refX="0.0"
       id="marker1834"
       style="overflow:visible;"
       inkscape:isstock="true">
      <path
         id="path1832"
         d="M 0.0,0.0 L 5.0,-5.0 L -12.5,0.0 L 5.0,5.0 L 0.0,0.0 z "
         style="fill-rule:evenodd;stroke:#fcfcfc;stroke-width:1pt;stroke-opacity:1;fill:#ffffff;fill-opacity:1"
         transform="scale(0.8) rotate(180) translate(12.5,0)" />
    </marker>
    <marker
       inkscape:stockid="Arrow1Lend"
       orient="auto"
       refY="0.0"
       refX="0.0"
       id="Arrow1Lend"
       style="overflow:visible;"
       inkscape:isstock="true">
      <path
         id="path1377"
         d="M 0.0,0.0 L 5.0,-5.0 L -12.5,0.0 L 5.0,5.0 L 0.0,0.0 z "
         style="fill-rule:evenodd;stroke:#000000;stroke-width:1pt;stroke-opacity:1"
         transform="scale(0.8) rotate(180) translate(12.5,0)" />
    </marker>
  </defs>
  <sodipodi:namedview
     pagecolor="#ffffff"
     bordercolor="#666666"
     borderopacity="1"
     objecttolerance="10"
     gridtolerance="10"
     guidetolerance="10"
     inkscape:pageopacity="0"
     inkscape:pageshadow="2"
     inkscape:window-width="1920"
     inkscape:window-height="1017"
     id="namedview21"
     showgrid="false"
     inkscape:zoom="2.05"
     inkscape:cx="94.731707"
     inkscape:cy="174"
     inkscape:window-x="1358"
     inkscape:window-y="-8"
     inkscape:window-maximized="1"
     inkscape:current-layer="svg19" />
  <clipPath
     id="p.0">
    <path
       d="m0 0l348.0 0l0 348.0l-348.0 0l0 -348.0z"
       clip-rule="nonzero"
       id="path2" />
  </clipPath>
  <g
     clip-path="url(#p.0)"
     id="g17">
    <path
       d="m0 0l348.0 0l0 348.0l-348.0 0z"
       id="path5"
       fill-rule="nonzero"
       fill-opacity="0.0"
       fill="#000000" />
    <path
       d="m-6.0 0l348.0 0l0 347.9685l-348.0 0z"
       id="path7"
       fill-rule="nonzero"
       fill="#ffffff" />
    <path
       d="m5.07874 5.7758217l336.9134 0l0 337.6693l-336.9134 0z"
       id="path9"
       fill-rule="nonzero"
       fill-opacity="0.0"
       fill="#000000" />
    <path
       d="m5.07874 5.7758217l336.9134 0l0 337.6693l-336.9134 0z"
       id="path11"
       stroke-linejoin="round"
       stroke-linecap="butt"
       stroke-width="2.0"
       stroke="#000000"
       fill-rule="nonzero" />
    <path
       d="m282.73444 40.553925l0 0c0 -8.375591 6.966034 -15.165352 15.5590515 -15.165352l0 0c4.126526 0 8.084015 1.5977726 11.001923 4.441828c2.9178772 2.844057 4.557129 6.7014217 4.557129 10.723524l0 0c0 8.375595 -6.9660034 15.165356 -15.5590515 15.165356l0 0c-8.593018 0 -15.5590515 -6.7897606 -15.5590515 -15.165356z"
       id="path13"
       fill-rule="nonzero"
       fill="#ffffff" />
    <path
       d="m282.73444 40.553925l0 0c0 -8.375591 6.966034 -15.165352 15.5590515 -15.165352l0 0c4.126526 0 8.084015 1.5977726 11.001923 4.441828c2.9178772 2.844057 4.557129 6.7014217 4.557129 10.723524l0 0c0 8.375595 -6.9660034 15.165356 -15.5590515 15.165356l0 0c-8.593018 0 -15.5590515 -6.7897606 -15.5590515 -15.165356z"
       id="path15"
       stroke-linejoin="round"
       stroke-linecap="butt"
       stroke-width="2.0"
       stroke="#000000"
       fill-rule="nonzero" />
  </g>
  <rect
     style="fill:none;fill-opacity:0.95477385;stroke:#000000;stroke-width:0.75486588;stroke-opacity:1;paint-order:stroke fill markers"
     id="rect836"
     width="34.245132"
     height="34.245132"
     x="38.377434"
     y="38.661537" />
  <rect
     style="fill:#000000;fill-opacity:1;stroke:#000000;stroke-width:0.75486588;stroke-opacity:1;paint-order:stroke fill markers"
     id="rect836-6"
     width="34.245132"
     height="34.245132"
     x="72.622566"
     y="38.661537" />
  <rect
     style="fill:#000000;fill-opacity:1;stroke:#000000;stroke-width:0.75486588;stroke-opacity:1;paint-order:stroke fill markers"
     id="rect836-6-8"
     width="34.245132"
     height="34.245132"
     x="106.8677"
     y="38.661537" />
  <rect
     style="fill:#000000;fill-opacity:1;stroke:#000000;stroke-width:0.75486588;stroke-opacity:1;paint-order:stroke fill markers"
     id="rect836-6-8-9"
     width="34.245132"
     height="34.245132"
     x="141.11282"
     y="38.661533" />
  <rect
     style="fill:none;fill-opacity:0.95477385;stroke:#000000;stroke-width:0.75486588;stroke-opacity:1;paint-order:stroke fill markers"
     id="rect836-6-8-9-2"
     width="34.245132"
     height="34.245132"
     x="175.35796"
     y="38.661537" />
  <rect
     style="fill:#000000;fill-opacity:1;stroke:#000000;stroke-width:0.75486588;stroke-opacity:1;paint-order:stroke fill markers"
     id="rect836-3"
     width="34.245132"
     height="34.245132"
     x="38.377438"
     y="72.90667" />
  <rect
     style="fill:none;fill-opacity:0.95477385;stroke:#000000;stroke-width:0.75486588;stroke-opacity:1;paint-order:stroke fill markers"
     id="rect836-6-0"
     width="34.245132"
     height="34.245132"
     x="72.622566"
     y="72.90667" />
  <rect
     style="fill:none;fill-opacity:0.95477385;stroke:#000000;stroke-width:0.75486588;stroke-opacity:1;paint-order:stroke fill markers"
     id="rect836-6-8-1"
     width="34.245132"
     height="34.245132"
     x="106.8677"
     y="72.90667" />
  <rect
     style="fill:none;fill-opacity:0.95477385;stroke:#000000;stroke-width:0.75486588;stroke-opacity:1;paint-order:stroke fill markers"
     id="rect836-6-8-9-4"
     width="34.245132"
     height="34.245132"
     x="141.11282"
     y="72.90667" />
  <rect
     style="fill:#000000;fill-opacity:1;stroke:#000000;stroke-width:0.75486588;stroke-opacity:1;paint-order:stroke fill markers"
     id="rect836-6-8-9-2-4"
     width="34.245132"
     height="34.245132"
     x="175.35797"
     y="72.90667" />
  <rect
     style="fill:none;fill-opacity:0.95477385;stroke:#000000;stroke-width:0.75486588;stroke-opacity:1;paint-order:stroke fill markers"
     id="rect836-5"
     width="34.245132"
     height="34.245132"
     x="38.377438"
     y="107.1518" />
  <rect
     style="fill:none;fill-opacity:0.95477385;stroke:#000000;stroke-width:0.75486588;stroke-opacity:1;paint-order:stroke fill markers"
     id="rect836-6-9"
     width="34.245132"
     height="34.245132"
     x="72.622566"
     y="107.1518" />
  <rect
     style="fill:none;fill-opacity:0.95477385;stroke:#000000;stroke-width:0.75486588;stroke-opacity:1;paint-order:stroke fill markers"
     id="rect836-6-8-7"
     width="34.245132"
     height="34.245132"
     x="106.8677"
     y="107.1518" />
  <rect
     style="fill:none;fill-opacity:0.95477385;stroke:#000000;stroke-width:0.75486588;stroke-opacity:1;paint-order:stroke fill markers"
     id="rect836-6-8-9-41"
     width="34.245132"
     height="34.245132"
     x="141.11282"
     y="107.1518" />
  <rect
     style="fill:#000000;fill-opacity:1;stroke:#000000;stroke-width:0.75486588;stroke-opacity:1;paint-order:stroke fill markers"
     id="rect836-6-8-9-2-0"
     width="34.245132"
     height="34.245132"
     x="175.35797"
     y="107.1518" />
  <rect
     style="fill:none;fill-opacity:0.95477385;stroke:#000000;stroke-width:0.75486588;stroke-opacity:1;paint-order:stroke fill markers"
     id="rect836-3-0"
     width="34.245132"
     height="34.245132"
     x="38.377438"
     y="141.39694" />
  <rect
     style="fill:none;fill-opacity:0.95477385;stroke:#000000;stroke-width:0.75486588;stroke-opacity:1;paint-order:stroke fill markers"
     id="rect836-6-0-5"
     width="34.245132"
     height="34.245132"
     x="72.622566"
     y="141.39694" />
  <rect
     style="fill:none;fill-opacity:0.95477385;stroke:#000000;stroke-width:0.75486588;stroke-opacity:1;paint-order:stroke fill markers"
     id="rect836-6-8-1-8"
     width="34.245132"
     height="34.245132"
     x="106.8677"
     y="141.39694" />
  <rect
     style="fill:#000000;fill-opacity:1;stroke:#000000;stroke-width:0.75486588;stroke-opacity:1;paint-order:stroke fill markers"
     id="rect836-6-8-9-4-6"
     width="34.245132"
     height="34.245132"
     x="141.11282"
     y="141.39694" />
  <rect
     style="fill:none;fill-opacity:0.95477385;stroke:#000000;stroke-width:0.75486588;stroke-opacity:1;paint-order:stroke fill markers"
     id="rect836-6-8-9-2-4-7"
     width="34.245132"
     height="34.245132"
     x="175.35799"
     y="141.39694" />
  <rect
     style="fill:none;fill-opacity:0.95477385;stroke:#000000;stroke-width:0.75486588;stroke-opacity:1;paint-order:stroke fill markers"
     id="rect836-5-5"
     width="34.245132"
     height="34.245132"
     x="38.377445"
     y="175.64207" />
  <rect
     style="fill:none;fill-opacity:0.95477385;stroke:#000000;stroke-width:0.75486588;stroke-opacity:1;paint-order:stroke fill markers"
     id="rect836-6-9-6"
     width="34.245132"
     height="34.245132"
     x="72.622574"
     y="175.64207" />
  <rect
     style="fill:#000000;fill-opacity:1;stroke:#000000;stroke-width:0.75486588;stroke-opacity:1;paint-order:stroke fill markers"
     id="rect836-6-8-7-4"
     width="34.245132"
     height="34.245132"
     x="106.86771"
     y="175.64207" />
  <rect
     style="fill:none;fill-opacity:0.95477385;stroke:#000000;stroke-width:0.75486588;stroke-opacity:1;paint-order:stroke fill markers"
     id="rect836-6-8-9-41-3"
     width="34.245132"
     height="34.245132"
     x="141.11282"
     y="175.64207" />
  <rect
     style="fill:none;fill-opacity:0.95477385;stroke:#000000;stroke-width:0.75486588;stroke-opacity:1;paint-order:stroke fill markers"
     id="rect836-6-8-9-2-0-4"
     width="34.245132"
     height="34.245132"
     x="175.35797"
     y="175.64207" />
  <rect
     style="fill:none;fill-opacity:0.95477385;stroke:#000000;stroke-width:0.75486588;stroke-opacity:1;paint-order:stroke fill markers"
     id="rect836-3-0-9"
     width="34.245132"
     height="34.245132"
     x="38.377445"
     y="209.88721" />
  <rect
     style="fill:none;fill-opacity:0.95477385;stroke:#000000;stroke-width:0.75486588;stroke-opacity:1;paint-order:stroke fill markers"
     id="rect836-6-0-5-3"
     width="34.245132"
     height="34.245132"
     x="72.622574"
     y="209.88721" />
  <rect
     style="fill:#000000;fill-opacity:1;stroke:#000000;stroke-width:0.75486588;stroke-opacity:1;paint-order:stroke fill markers"
     id="rect836-6-8-1-8-2"
     width="34.245132"
     height="34.245132"
     x="106.86771"
     y="209.88721" />
  <rect
     style="fill:none;fill-opacity:0.95477385;stroke:#000000;stroke-width:0.75486588;stroke-opacity:1;paint-order:stroke fill markers"
     id="rect836-6-8-9-4-6-6"
     width="34.245132"
     height="34.245132"
     x="141.11282"
     y="209.88721" />
  <rect
     style="fill:none;fill-opacity:0.95477385;stroke:#000000;stroke-width:0.75486588;stroke-opacity:1;paint-order:stroke fill markers"
     id="rect836-6-8-9-2-4-7-4"
     width="34.245132"
     height="34.245132"
     x="175.35799"
     y="209.88721" />
  <rect
     style="fill:none;fill-opacity:0.95477385;stroke:#000000;stroke-width:0.75486588;stroke-opacity:1;paint-order:stroke fill markers"
     id="rect836-5-5-2"
     width="34.245132"
     height="34.245132"
     x="38.377434"
     y="244.13234" />
  <rect
     style="fill:none;fill-opacity:0.95477385;stroke:#000000;stroke-width:0.75486588;stroke-opacity:1;paint-order:stroke fill markers"
     id="rect836-6-9-6-3"
     width="34.245132"
     height="34.245132"
     x="72.622566"
     y="244.13234" />
  <rect
     style="fill:none;fill-opacity:0.95477385;stroke:#000000;stroke-width:0.75486588;stroke-opacity:1;paint-order:stroke fill markers"
     id="rect836-6-8-7-4-1"
     width="34.245132"
     height="34.245132"
     x="106.8677"
     y="244.13234" />
  <rect
     style="fill:none;fill-opacity:0.95477385;stroke:#000000;stroke-width:0.75486588;stroke-opacity:1;paint-order:stroke fill markers"
     id="rect836-6-8-9-41-3-1"
     width="34.245132"
     height="34.245132"
     x="141.11281"
     y="244.13234" />
  <rect
     style="fill:none;fill-opacity:0.95477385;stroke:#000000;stroke-width:0.75486588;stroke-opacity:1;paint-order:stroke fill markers"
     id="rect836-6-8-9-2-0-4-0"
     width="34.245132"
     height="34.245132"
     x="175.35796"
     y="244.13234" />
  <rect
     style="fill:none;fill-opacity:0.95477385;stroke:#000000;stroke-width:0.75486588;stroke-opacity:1;paint-order:stroke fill markers"
     id="rect836-3-0-9-0"
     width="34.245132"
     height="34.245132"
     x="38.377434"
     y="278.37744" />
  <rect
     style="fill:none;fill-opacity:0.95477385;stroke:#000000;stroke-width:0.75486588;stroke-opacity:1;paint-order:stroke fill markers"
     id="rect836-6-0-5-3-6"
     width="34.245132"
     height="34.245132"
     x="72.622566"
     y="278.37744" />
  <rect
     style="fill:#000000;fill-opacity:1;stroke:#000000;stroke-width:0.75486588;stroke-opacity:1;paint-order:stroke fill markers"
     id="rect836-6-8-1-8-2-6"
     width="34.245132"
     height="34.245132"
     x="106.8677"
     y="278.37744" />
  <rect
     style="fill:none;fill-opacity:0.95477385;stroke:#000000;stroke-width:0.75486588;stroke-opacity:1;paint-order:stroke fill markers"
     id="rect836-6-8-9-4-6-6-8"
     width="34.245132"
     height="34.245132"
     x="141.11281"
     y="278.37744" />
  <rect
     style="fill:none;fill-opacity:0.95477385;stroke:#000000;stroke-width:0.75486588;stroke-opacity:1;paint-order:stroke fill markers"
     id="rect836-6-8-9-2-4-7-4-5"
     width="34.245132"
     height="34.245132"
     x="175.35797"
     y="278.37744" />
  <rect
     style="fill:#000000;fill-opacity:1;stroke:#000000;stroke-width:1.50973189;stroke-opacity:1;paint-order:stroke fill markers"
     id="rect836-3-9"
     width="68.490265"
     height="68.490265"
     x="238.75487"
     y="70.754868" />
  <rect
     style="fill:#000000;fill-opacity:1;stroke:#000000;stroke-width:1.06611514;stroke-opacity:1;paint-order:stroke fill markers"
     id="rect836-3-92"
     width="68.933884"
     height="33.933884"
     x="238.53305"
     y="138.53307" />
  <rect
     style="fill:none;fill-opacity:0.95477385;stroke:#000000;stroke-width:1.06611514;stroke-opacity:1;paint-order:stroke fill markers"
     id="rect836-5-3"
     width="68.933884"
     height="33.933884"
     x="238.53305"
     y="210.53307" />
  <rect
     style="fill:none;fill-opacity:0.95477385;stroke:#000000;stroke-width:1.06611514;stroke-opacity:1;paint-order:stroke fill markers"
     id="rect836-5-3-1"
     width="68.933884"
     height="33.933884"
     x="238.53304"
     y="244.46695" />
  <g
     aria-label="Reset"
     style="font-style:normal;font-variant:normal;font-weight:normal;font-stretch:normal;font-size:40px;line-height:1.25;font-family:'A.Casual.Handwritten.Pen';-inkscape-font-specification:'A.Casual.Handwritten.Pen';letter-spacing:0px;word-spacing:0px;fill:#000000;fill-opacity:1;stroke:none"
     id="text1352">
    <path
       d="m 256.04,232.72001 q 1.24,1.08 1.24,1.56 0,0.24 -0.16,0.4 -0.4,0.4 -0.92,0.4 -0.6,0 -1.16,-0.44 -2.12,-1.52 -3.76,-2.36 -2.48,-1.28 -3.84,-1.44 -0.36,-0.08 -0.68,-0.4 -0.32,0.08 -0.8,0.08 -0.32,0 -0.48,-0.04 0.4,2.8 0.4,4.6 v 0.96 q 0,1.92 -0.64,1.96 -0.48,0 -0.92,-0.56 -0.4,-0.6 -0.52,-1.68 -0.08,-0.76 -0.2,-2.44 -0.24,-2.36 -0.48,-3.96 -0.16,-1.24 -0.4,-2.6 -0.24,-1.4 -0.44,-2.36 -0.2,-0.96 -0.2,-1.08 -0.08,-0.48 -0.08,-0.64 0,-1.08 0.96,-1.24 0.28,-0.12 0.56,-0.04 0,-0.08 0.04,-0.08 0.72,-1.2 2.4,-1.92 2.16,-0.72 3.8,-0.72 h 0.56 q 2.12,0.16 3.48,1.08 0.8,0.52 1.32,1.52 0.56,0.96 0.56,1.96 0,0.08 -0.04,0.2 0,0.12 0,0.16 -0.04,2.08 -1.84,3.64 -0.92,0.84 -2.76,1.8 -0.32,0.12 -0.88,0.36 1.28,0.48 2.04,0.88 2.44,1.2 3.84,2.44 z m -10.8,-4.08 q 0.84,-0.28 1.44,-0.4 2.12,-0.6 3.64,-1.32 2.96,-1.4 3.12,-3.24 v -0.28 q 0,-0.96 -0.6,-1.56 -0.6,-0.68 -1.88,-0.88 -0.68,-0.12 -1.28,-0.12 -1,0 -2.2,0.28 -0.8,0.24 -2.92,1.28 -0.4,0.2 -0.4,0.2 0.04,0.04 0.04,0.16 0.76,3.84 1.04,5.88 z"
       style=""
       id="path2322" />
    <path
       d="m 268.44813,232.80001 q 0.8,-0.44 1.08,-0.44 0.16,0 0.28,0.12 0.12,0.12 0.12,0.36 0,0.44 -0.52,1.08 -1.2,1.44 -3.52,1.96 -1,0.2 -1.72,0.2 -0.12,0 -0.32,0 -0.2,-0.04 -0.28,-0.04 -0.96,-0.08 -1.76,-0.32 -0.48,-0.16 -0.96,-0.48 -0.56,-0.36 -0.92,-0.8 -1.6,-1.76 -1.68,-4.44 0,-1.4 0.32,-2.52 0.4,-1.44 1.36,-2.4 1.64,-1.76 4,-1.76 0.48,0 1.04,0.12 1.48,0.28 2.4,1.4 0.6,0.84 0.6,1.8 0,0.4 -0.16,0.96 -0.52,1.4 -2.12,2.88 -0.24,0.24 -1.36,1.16 -1.76,1.28 -2.84,1.36 l 0.24,0.24 q 0.32,0.28 0.88,0.48 0.68,0.24 1.8,0.24 1.72,-0.08 4.04,-1.16 z m -8,-3.56 q 0,0.08 -0.04,0.28 0,0.16 0,0.24 0,1 0.32,1.84 0.4,-0.4 2.04,-1.52 1.04,-0.76 1.64,-1.36 1.32,-1.12 1.36,-1.92 0.04,-0.48 -0.24,-0.76 -0.32,-0.4 -1.08,-0.52 -0.08,0 -0.24,0 -0.12,-0.04 -0.2,-0.04 -1.36,0 -2.36,0.92 -1,0.84 -1.2,2.84 z"
       style=""
       id="path2324" />
    <path
       d="m 279.91563,230.28001 q 1.16,0.56 1.68,1.48 0.28,0.44 0.28,1.12 0,0.6 -0.28,1.16 -0.32,0.6 -1.08,1.2 -0.64,0.44 -0.92,0.52 -1.92,0.88 -4.48,1.12 -1.28,0 -1.32,-0.4 v -0.04 q 0,-0.48 0.96,-1 0.52,-0.24 3,-1.16 0.92,-0.36 1.4,-0.68 0.4,-0.24 0.56,-0.56 0.08,-0.2 -0.12,-0.4 -0.28,-0.4 -0.92,-0.48 -0.44,-0.08 -1.72,-0.08 -0.24,0 -0.72,0.04 -0.48,0 -0.76,0 -1.72,0 -3.04,-0.56 -1.48,-0.64 -1.88,-2.12 -0.2,-0.72 -0.2,-1.28 0,-0.6 0.2,-1.32 0.36,-1.12 1.32,-2 0.68,-0.68 1.64,-1.16 1.2,-0.6 2.88,-1.04 0.8,-0.16 1.52,-0.16 h 0.32 q 0.84,0.04 1.44,0.6 0.44,0.44 0.64,0.92 0.2,0.52 0.2,0.96 v 0.28 q -0.12,0.68 -0.68,0.76 -0.6,0.12 -0.92,-0.4 -0.48,-0.88 -0.8,-0.92 -0.04,-0.04 -0.24,-0.04 -0.44,0 -1.24,0.2 -1.32,0.28 -2.36,0.88 -1.4,0.84 -1.68,1.84 -0.16,0.72 0,1.2 0.2,0.56 0.6,0.76 0.72,0.44 2.96,0.44 0.28,0 0.84,0 0.6,-0.04 0.92,-0.04 1.36,0.08 2,0.36 z"
       style=""
       id="path2326" />
    <path
       d="m 293.29188,232.80001 q 0.8,-0.44 1.08,-0.44 0.16,0 0.28,0.12 0.12,0.12 0.12,0.36 0,0.44 -0.52,1.08 -1.2,1.44 -3.52,1.96 -1,0.2 -1.72,0.2 -0.12,0 -0.32,0 -0.2,-0.04 -0.28,-0.04 -0.96,-0.08 -1.76,-0.32 -0.48,-0.16 -0.96,-0.48 -0.56,-0.36 -0.92,-0.8 -1.6,-1.76 -1.68,-4.44 0,-1.4 0.32,-2.52 0.4,-1.44 1.36,-2.4 1.64,-1.76 4,-1.76 0.48,0 1.04,0.12 1.48,0.28 2.4,1.4 0.6,0.84 0.6,1.8 0,0.4 -0.16,0.96 -0.52,1.4 -2.12,2.88 -0.24,0.24 -1.36,1.16 -1.76,1.28 -2.84,1.36 l 0.24,0.24 q 0.32,0.28 0.88,0.48 0.68,0.24 1.8,0.24 1.72,-0.08 4.04,-1.16 z m -8,-3.56 q 0,0.08 -0.04,0.28 0,0.16 0,0.24 0,1 0.32,1.84 0.4,-0.4 2.04,-1.52 1.04,-0.76 1.64,-1.36 1.32,-1.12 1.36,-1.92 0.04,-0.48 -0.24,-0.76 -0.32,-0.4 -1.08,-0.52 -0.08,0 -0.24,0 -0.12,-0.04 -0.2,-0.04 -1.36,0 -2.36,0.92 -1,0.84 -1.2,2.84 z"
       style=""
       id="path2328" />
    <path
       d="m 302.67938,221.68001 q 0.96,0.24 1.28,0.4 0.36,0.16 0.36,0.48 0,0.04 -0.04,0.12 0,0.04 0,0.08 -0.24,1.04 -1.4,1.04 h -0.16 q -1.12,-0.16 -2.2,-0.2 l 0.12,2.16 q 0.2,4.88 0.64,7.44 0.08,0.68 0.48,2.24 0.04,0.16 0,0.24 0,0.04 -0.08,0.16 -0.04,0.12 -0.04,0.28 -0.08,0.24 -0.28,0.36 -0.28,0.12 -0.76,-0.16 -0.84,-0.56 -1.2,-2.04 -0.24,-0.76 -0.56,-3.28 -0.28,-2.52 -0.36,-4.96 -0.08,-1.52 -0.08,-2.24 -0.52,0.08 -1.16,0.36 -0.56,0.28 -0.68,0.56 -0.16,0.2 -0.52,0.2 -0.32,0 -0.88,-0.08 -0.72,-0.12 -0.72,-0.56 0,-0.44 0.4,-0.88 0.6,-0.76 1.56,-1.2 0.88,-0.44 1.92,-0.56 v -2.52 -0.12 q 0,-1.8 1.12,-1.8 h 0.12 q 0.64,0 0.76,0.36 0.16,0.32 0.16,1.4 v 2.52 q 1.2,0 2.2,0.2 z"
       style=""
       id="path2330" />
  </g>
  <g
     aria-label="1"
     style="font-style:normal;font-variant:normal;font-weight:normal;font-stretch:normal;font-size:40px;line-height:1.25;font-family:'A.Casual.Handwritten.Pen';-inkscape-font-specification:'A.Casual.Handwritten.Pen';letter-spacing:0px;word-spacing:0px;fill:#ffffff;fill-opacity:1;stroke:none"
     id="text1360">
    <path
       d="m 275.5161,156.00683 q 0.48,3.76 0.72,7.36 0.04,0.68 0.04,1.72 0,1.72 -0.6,1.76 h -0.04 q -0.48,0 -0.88,-0.64 -0.4,-0.68 -0.56,-2 -0.44,-4.88 -0.8,-7.72 -0.24,-1.68 -0.4,-2.4 -0.12,-0.6 -0.24,-1.08 l -0.24,-0.04 q -0.16,0.24 -0.16,0.24 -0.64,1.28 -1.56,1.28 -0.2,0 -0.32,-0.04 -0.64,-0.24 -0.64,-0.72 0,-0.48 0.56,-1.48 0.16,-0.28 0.36,-0.56 0.04,-0.04 0.12,-0.16 0.12,-0.12 0.2,-0.2 0.44,-0.44 0.52,-0.48 0.56,-0.44 1.36,-0.52 1.12,0 1.72,1.64 0.04,0.12 0.08,0.24 0.04,0.08 0.04,0.12 l 0.08,0.28 q 0.16,0.72 0.24,1.12 0.12,0.64 0.4,2.28 z"
       style=""
       id="path2346" />
  </g>
  <path
     style="fill:#ffffff;fill-opacity:1;stroke:#fcfcfc;stroke-width:0.88052791px;stroke-linecap:butt;stroke-linejoin:miter;stroke-opacity:1;marker-end:url(#marker1834)"
     d="m 247,102.52846 h 50.68007"
     id="path1810"
     inkscape:connector-curvature="0" />
  <rect
     style="fill:none;fill-opacity:0.95477385;stroke:#000000;stroke-width:1.06611514;stroke-opacity:1;paint-order:stroke fill markers"
     id="rect836-5-3-1-3"
     width="68.933884"
     height="33.933884"
     x="238.53304"
     y="278.40082" />
  <g
     transform="translate(0,34)"
     aria-label="Submit"
     style="font-style:normal;font-variant:normal;font-weight:normal;font-stretch:normal;font-size:36px;line-height:1.25;font-family:'A.Casual.Handwritten.Pen';-inkscape-font-specification:'A.Casual.Handwritten.Pen';letter-spacing:0px;word-spacing:0px;fill:#000000;fill-opacity:1;stroke:none"
     id="text1356-2">
    <path
       inkscape:connector-curvature="0"
       d="m 249.72,265.06 q 0.648,0.324 1.008,0.72 0.576,0.504 0.684,1.296 v 0.288 q 0,1.044 -0.828,1.944 -0.972,1.008 -2.448,1.476 -0.864,0.216 -1.62,0.216 -1.152,0 -2.016,-0.432 -1.152,-0.504 -1.836,-1.584 -0.468,-0.828 -0.468,-1.26 0,-0.288 0.18,-0.36 0.036,-0.036 0.144,-0.036 0.216,0 1.116,0.756 1.296,1.044 2.7,1.044 h 0.216 q 0.936,-0.108 1.692,-0.468 0.648,-0.36 0.972,-0.72 0.18,-0.252 0.252,-0.432 0,-0.144 -0.036,-0.216 -0.144,-0.396 -1.188,-0.684 -0.612,-0.18 -2.124,-0.54 -0.072,-0.036 -0.576,-0.144 -0.468,-0.144 -0.612,-0.18 -0.144,-0.072 -0.576,-0.216 -0.432,-0.144 -0.648,-0.216 -0.216,-0.108 -0.612,-0.252 -0.36,-0.18 -0.612,-0.36 -0.252,-0.18 -0.576,-0.396 -0.288,-0.252 -0.54,-0.504 -1.116,-1.08 -1.296,-2.664 Q 240,260.488 240,260.2 q 0,-0.828 0.288,-1.764 0.72,-2.484 2.952,-3.816 1.62,-1.044 3.6,-1.044 0.9,0 2.088,0.396 1.26,0.432 1.908,1.656 0.36,0.72 0.36,1.368 -0.036,0.72 -0.54,0.9 -0.54,0.072 -0.9,-0.504 -0.036,-0.036 -0.288,-0.432 -0.216,-0.396 -0.468,-0.612 -0.216,-0.252 -0.54,-0.432 -0.9,-0.36 -1.728,-0.36 h -0.144 q -1.368,0.072 -2.556,0.9 -1.44,1.008 -1.872,2.628 -0.18,0.612 -0.18,1.188 0,0.108 0,0.288 0.036,0.18 0.036,0.252 0.18,0.9 0.576,1.44 0.864,0.972 3.204,1.656 0.324,0.108 1.728,0.468 1.404,0.36 2.196,0.684 z"
       id="path2333-6" />
    <path
       inkscape:connector-curvature="0"
       d="m 262.10343,263.476 q 0.144,2.448 0.504,4.14 0.072,0.396 0.18,0.792 0.144,0.36 0.144,0.432 0,0.252 -0.216,0.576 -0.252,0.432 -0.828,0.252 -0.288,-0.108 -0.54,-0.432 -0.324,-0.396 -0.396,-0.72 -0.504,0.432 -0.972,0.684 -0.036,0.036 -0.288,0.18 -0.252,0.108 -0.468,0.216 -0.216,0.072 -0.576,0.216 -0.324,0.108 -0.756,0.216 -0.396,0.072 -0.828,0.108 h -0.288 q -1.368,0 -2.232,-0.504 -0.432,-0.216 -0.612,-0.36 -0.252,-0.144 -0.612,-0.576 -0.144,-0.144 -0.432,-0.684 -0.108,-0.216 -0.252,-0.648 -0.468,-1.62 -0.468,-3.78 v -0.828 q 0,-0.756 0.036,-1.584 0.072,-0.864 0.072,-0.9 0.18,-1.728 1.188,-1.728 h 0.108 q 0.756,0.108 0.756,0.936 0,0.18 -0.072,0.828 -0.144,1.008 -0.18,2.7 0,2.376 0.36,3.6 0.036,0.072 0.108,0.36 0.108,0.252 0.18,0.36 0.072,0.072 0.072,0.144 0.036,0 0.108,0.072 l 0.072,0.072 0.144,0.108 q 0.612,0.396 1.332,0.468 h 0.252 q 0.828,0 1.944,-0.432 0.504,-0.216 1.116,-0.504 0.612,-0.324 0.792,-0.396 -0.324,-1.548 -0.36,-3.168 -0.108,-1.728 -0.108,-3.096 0,-0.396 0,-0.864 0.036,-0.468 0.036,-0.504 0,-1.152 1.008,-1.152 h 0.144 q 0.504,0.036 0.648,0.216 0.144,0.18 0.144,0.576 v 0.36 q 0,0.108 -0.036,0.576 0,0.468 0,0.792 0,0.792 0.072,2.88 z"
       id="path2335-6" />
    <path
       inkscape:connector-curvature="0"
       d="m 273.09637,258.868 q 0.792,1.152 0.792,2.952 v 0.288 q -0.144,1.836 -0.792,3.024 -0.612,1.188 -1.728,2.196 -0.828,0.72 -2.664,1.728 -0.9,0.432 -1.548,0.432 -0.324,0 -0.54,-0.108 -0.108,0.288 -0.396,0.288 h -0.036 q -1.044,0 -1.26,-2.088 -0.072,-0.828 -0.18,-2.34 -0.252,-2.34 -0.468,-3.744 -0.144,-1.188 -0.36,-2.484 -0.216,-1.296 -0.36,-2.196 -0.144,-0.936 -0.18,-1.08 -0.072,-0.432 -0.072,-0.612 0,-0.972 0.828,-1.152 0.108,-0.036 0.324,-0.036 0.36,0 0.504,0.288 0.18,0.288 0.288,1.044 0.468,2.52 0.684,4.104 0.36,-0.432 0.612,-0.684 0.54,-0.432 1.26,-0.828 1.08,-0.504 2.196,-0.504 h 0.18 q 0.828,0 1.548,0.36 0.828,0.324 1.368,1.152 z m -1.152,3.312 v -0.36 q 0,-0.936 -0.252,-1.584 -0.324,-0.648 -1.044,-0.9 -0.36,-0.072 -0.648,-0.072 -0.324,0 -0.756,0.072 -0.432,0.108 -1.008,0.432 -0.432,0.252 -0.792,0.576 -0.324,0.324 -0.648,0.684 -0.288,0.36 -0.36,0.432 -0.036,0.036 -0.108,0.108 -0.036,0.072 -0.072,0.108 0.504,4.104 0.504,5.04 v 0.216 0.9 q 0.144,-0.072 0.432,-0.216 0.324,-0.144 0.504,-0.216 1.548,-0.72 2.556,-1.656 1.548,-1.404 1.692,-3.564 z"
       id="path2337-2" />
    <path
       inkscape:connector-curvature="0"
       d="m 289.96406,259.84 q 0.576,0.9 1.008,2.52 0.396,1.728 0.396,3.636 0,2.088 -0.252,3.168 -0.216,0.72 -0.72,0.72 -0.144,0 -0.288,-0.144 -0.18,-0.18 -0.288,-0.576 -0.288,-0.828 -0.324,-2.34 0,-1.764 -0.252,-3.276 -0.252,-1.404 -0.72,-2.304 -0.648,-1.224 -1.44,-1.404 -0.432,-0.108 -0.648,-0.108 -0.648,0 -1.08,0.468 -0.504,0.54 -0.864,1.836 -0.288,1.116 -0.468,2.844 0,0.036 -0.036,0.144 0,0.108 0,0.18 v 0.36 0.54 q 0,2.88 -0.684,2.88 h -0.036 q -0.864,-0.108 -1.08,-2.124 -0.144,-2.448 -0.324,-3.348 -0.216,-1.26 -0.54,-1.944 -0.432,-1.116 -1.044,-1.296 -0.216,-0.072 -0.396,-0.072 -0.612,0 -1.008,0.324 -0.612,0.432 -0.828,1.296 -0.36,1.08 -0.36,1.656 0,0.072 0,0.18 0.036,0.108 0.036,0.144 0.288,2.16 0.288,3.852 -0.036,1.188 -0.18,1.584 -0.108,0.396 -0.504,0.396 -0.432,0 -0.792,-0.396 -0.36,-0.396 -0.396,-1.116 0,-0.828 -0.396,-4.392 -0.468,-3.06 -0.792,-4.032 -0.072,-0.216 -0.072,-0.54 0,-0.648 0.648,-0.936 0.288,-0.072 0.432,-0.072 0.648,0 0.864,0.972 0,0.036 0.036,0.144 0.036,0.108 0.036,0.216 0.036,0.108 0.072,0.216 0.36,-0.468 0.864,-0.828 0.576,-0.432 1.332,-0.54 0.756,-0.108 0.792,-0.108 0.288,0 0.792,0.144 0.72,0.18 1.368,0.828 0.36,0.396 0.792,1.116 0,0.072 0.072,0.144 0.396,-1.008 1.044,-1.692 0.216,-0.252 0.72,-0.54 0.396,-0.216 0.9,-0.324 0.648,-0.072 0.936,-0.072 0.504,0 0.756,0.072 1.62,0.288 2.628,1.944 z"
       id="path2339-5" />
    <path
       inkscape:connector-curvature="0"
       d="m 295.25775,263.764 q 0.108,1.728 0.504,3.816 0.072,0.36 0.18,0.72 0.108,0.36 0.108,0.432 0,0.144 -0.216,0.54 -0.252,0.504 -0.792,0.288 -0.648,-0.18 -0.972,-1.08 -0.54,-1.476 -0.72,-4.464 -0.18,-1.908 -0.18,-4.14 v -0.144 q 0,-0.972 1.08,-0.972 0.576,0 0.72,0.216 0.144,0.216 0.144,0.792 0,1.836 0.144,3.996 z m -1.584,-6.408 q -0.648,-0.216 -0.648,-0.864 0,-0.432 0.288,-0.792 0.324,-0.36 0.828,-0.36 0.36,0 0.72,0.252 0.576,0.36 0.576,0.9 0,0.396 -0.36,0.684 -0.324,0.288 -0.828,0.288 -0.252,0 -0.576,-0.108 z"
       id="path2341-9" />
    <path
       inkscape:connector-curvature="0"
       d="m 304.14468,256.528 q 0.864,0.216 1.152,0.36 0.324,0.144 0.324,0.432 0,0.036 -0.036,0.108 0,0.036 0,0.072 -0.216,0.936 -1.26,0.936 h -0.144 q -1.008,-0.144 -1.98,-0.18 l 0.108,1.944 q 0.18,4.392 0.576,6.696 0.072,0.612 0.432,2.016 0.036,0.144 0,0.216 0,0.036 -0.072,0.144 -0.036,0.108 -0.036,0.252 -0.072,0.216 -0.252,0.324 -0.252,0.108 -0.684,-0.144 -0.756,-0.504 -1.08,-1.836 -0.216,-0.684 -0.504,-2.952 -0.252,-2.268 -0.324,-4.464 -0.072,-1.368 -0.072,-2.016 -0.468,0.072 -1.044,0.324 -0.504,0.252 -0.612,0.504 -0.144,0.18 -0.468,0.18 -0.288,0 -0.792,-0.072 -0.648,-0.108 -0.648,-0.504 0,-0.396 0.36,-0.792 0.54,-0.684 1.404,-1.08 0.792,-0.396 1.728,-0.504 v -2.268 -0.108 q 0,-1.62 1.008,-1.62 h 0.108 q 0.576,0 0.684,0.324 0.144,0.288 0.144,1.26 v 2.268 q 1.08,0 1.98,0.18 z"
       id="path2343-3" />
  </g>
  <g
     aria-label="Empty"
     transform="scale(0.98664546,1.0135353)"
     style="font-style:normal;font-variant:normal;font-weight:normal;font-stretch:normal;font-size:39.46582031px;line-height:1.25;font-family:'A.Casual.Handwritten.Pen';-inkscape-font-specification:'A.Casual.Handwritten.Pen';letter-spacing:0px;word-spacing:0px;fill:#000000;fill-opacity:1;stroke:none;stroke-width:0.98664546"
     id="text4661">
    <path
       d="m 254.53569,263.15807 q 0.67092,0.0395 0.98665,0.1184 0.31572,0.0395 0.47359,0.19733 0.19733,0.15786 0.19733,0.47359 0,1.18397 -1.30238,1.30237 -1.02611,0 -3.67032,0.19733 -2.28901,0.15786 -3.35459,0.47359 -0.55252,0.15786 -0.90771,-0.27626 l -0.1184,-0.0395 q -0.1184,-0.0395 -0.15787,-0.0789 -0.82878,-0.43412 -1.18397,-1.7365 -0.63145,-1.73649 -0.90771,-6.86705 -0.0789,-1.6181 -0.15787,-3.90711 l -0.0395,-2.24956 h -0.0789 q -0.78932,0 -0.98665,-0.90771 -0.0789,-0.39466 -0.0789,-0.51306 0,-0.31572 0.19733,-0.43412 0.19733,-0.15786 0.71038,-0.27626 2.36795,-0.63145 4.53857,-0.71039 0.55252,-0.0395 1.6181,-0.0395 1.77596,0 2.881,0.15786 1.14451,0.19733 1.53917,0.39466 0.43413,0.15786 0.43413,0.51306 v 0.11839 q -0.2368,1.10505 -1.57864,1.10505 h -0.19733 q -1.18397,-0.1184 -2.95993,-0.1184 -1.02611,0 -1.53917,0.0395 -1.26291,0.0789 -2.32848,0.2368 v 0.0789 q 0,3.03887 0.19733,6.2356 0,0.19733 0,0.51306 0.0395,0.31572 0.0395,0.47359 0.98665,-0.31573 2.9994,-0.31573 2.80208,0 4.49911,0.35519 0.94718,0.15787 1.2629,0.31573 0.3552,0.15786 0.3552,0.51305 v 0.15787 q -0.15787,1.10504 -1.34184,1.10504 h -0.15786 q -0.15787,0 -1.53917,-0.0789 -1.38131,-0.1184 -2.28902,-0.15786 -0.15786,0 -0.51306,0 -0.35519,-0.0395 -0.51305,-0.0395 -0.51306,0 -1.22344,0.0789 -0.71039,0.0395 -1.02611,0.19733 -0.15787,0.1184 -0.31573,0.0395 0.31573,2.48634 0.39466,2.92047 0.0395,0.19733 0.0789,0.55252 0.0789,0.31573 0.1184,0.47359 2.52581,-0.39466 3.35459,-0.47359 1.69703,-0.1184 2.95994,-0.1184 z"
       style="stroke-width:0.98664546"
       id="path4663" />
    <path
       d="m 273.88689,253.84414 q 0.63146,0.98664 1.10505,2.76261 0.43412,1.89435 0.43412,3.98604 0,2.28902 -0.27626,3.473 -0.23679,0.78931 -0.78932,0.78931 -0.15786,0 -0.31572,-0.15786 -0.19733,-0.19733 -0.31573,-0.63145 -0.31573,-0.90772 -0.35519,-2.56528 0,-1.93383 -0.27626,-3.59139 -0.27626,-1.53917 -0.78932,-2.52582 -0.71038,-1.34183 -1.57863,-1.53916 -0.47359,-0.1184 -0.71039,-0.1184 -0.71038,0 -1.18397,0.51306 -0.55252,0.59198 -0.94718,2.01275 -0.31573,1.22344 -0.51306,3.1178 0,0.0395 -0.0395,0.15787 0,0.11839 0,0.19732 v 0.39466 0.59199 q 0,3.15727 -0.74985,3.15727 h -0.0395 q -0.94718,-0.1184 -1.18397,-2.32849 -0.15787,-2.68367 -0.3552,-3.67032 -0.23679,-1.3813 -0.59198,-2.13115 -0.47359,-1.22344 -1.14451,-1.42077 -0.2368,-0.0789 -0.43413,-0.0789 -0.67091,0 -1.10504,0.35519 -0.67092,0.47359 -0.90771,1.42077 -0.39466,1.18397 -0.39466,1.81543 0,0.0789 0,0.19732 0.0395,0.1184 0.0395,0.15787 0.31572,2.36795 0.31572,4.22284 -0.0395,1.30237 -0.19733,1.7365 -0.11839,0.43412 -0.55252,0.43412 -0.47359,0 -0.86825,-0.43412 -0.39465,-0.43413 -0.43412,-1.22344 0,-0.90772 -0.43412,-4.81483 -0.51306,-3.3546 -0.86825,-4.42018 -0.0789,-0.23679 -0.0789,-0.59198 0,-0.71039 0.71038,-1.02611 0.31573,-0.0789 0.47359,-0.0789 0.71038,0 0.94718,1.06558 0,0.0395 0.0395,0.15786 0.0395,0.1184 0.0395,0.2368 0.0395,0.1184 0.0789,0.23679 0.39466,-0.51305 0.94718,-0.90771 0.63146,-0.47359 1.46024,-0.59199 0.82878,-0.11839 0.86825,-0.11839 0.31572,0 0.86824,0.15786 0.78932,0.19733 1.49971,0.90771 0.39465,0.43413 0.86824,1.22344 0,0.0789 0.0789,0.15787 0.43412,-1.10505 1.1445,-1.8549 0.2368,-0.27626 0.78932,-0.59198 0.43412,-0.2368 0.98665,-0.3552 0.71038,-0.0789 1.02611,-0.0789 0.55252,0 0.82878,0.0789 1.77596,0.31573 2.881,2.13116 z"
       style="stroke-width:0.98664546"
       id="path4665" />
    <path
       d="m 285.57063,250.48954 q 1.53916,0.71039 2.48634,2.68368 0.59199,1.34184 0.59199,2.84154 0,2.05222 -0.98664,3.59139 -1.26291,2.01275 -3.31513,2.9994 -0.82879,0.43412 -2.17062,0.78932 -0.39466,0.11839 -1.46024,0.23679 -0.35519,0 -0.51305,-0.0395 0.0789,0.55252 0.19732,1.4997 0.1184,0.94718 0.15787,1.22344 0.27626,2.13115 0.27626,2.48634 0,0.59199 -0.39466,0.74985 -0.0789,0.0395 -0.23679,0.0395 -0.43413,0 -0.90772,-0.63145 -0.43412,-0.59199 -0.63145,-1.65757 -0.51306,-2.28902 -1.06558,-7.34064 -0.47359,-4.93323 -0.74985,-6.90652 -0.0395,-0.19733 -0.0395,-0.51305 0,-1.38131 1.06558,-1.46024 h 0.2368 q 0.31572,0 0.47359,0.19733 0.15786,0.15786 0.19733,0.39466 0.0789,0.23679 0.15786,0.78931 1.42077,-1.57863 3.19673,-2.13115 1.02611,-0.2368 1.6181,-0.2368 0.90771,0 1.81543,0.39466 z m -0.15787,8.64302 q 1.10505,-1.22344 1.10505,-3.15727 0,-0.90771 -0.3552,-1.77596 -0.51305,-1.3813 -1.53916,-1.81543 l -0.47359,-0.1184 q -0.1184,0 -0.31573,0 -0.15786,-0.0395 -0.23679,-0.0395 -0.1184,0 -0.31573,0.0395 -0.15786,0 -0.2368,0 -0.19732,0.0789 -0.51305,0.15787 -1.10504,0.43412 -2.21009,1.73649 -0.43412,0.59199 -1.06557,1.22344 0.23679,2.40742 0.78931,7.06439 0.0395,-0.0395 0.1184,-0.1184 0.1184,-0.0789 0.15786,-0.1184 0.47359,-0.27626 0.98665,-0.47359 0.67092,-0.35519 1.3813,-0.59199 0.0789,-0.0395 0.47359,-0.23679 0.39466,-0.2368 0.71039,-0.39466 0.11839,-0.0789 0.35519,-0.27626 0.27626,-0.19733 0.39466,-0.27626 0.15786,-0.1184 0.43412,-0.43412 0.27626,-0.31573 0.35519,-0.39466 z"
       style="stroke-width:0.98664546"
       id="path4667" />
    <path
       d="m 296.83257,250.21328 q 0.94718,0.2368 1.26291,0.39466 0.35519,0.15786 0.35519,0.47359 0,0.0395 -0.0395,0.1184 0,0.0395 0,0.0789 -0.23679,1.02611 -1.3813,1.02611 h -0.15786 q -1.10505,-0.15786 -2.17062,-0.19733 l 0.11839,2.13116 q 0.19733,4.81483 0.63146,7.34064 0.0789,0.67092 0.47359,2.21008 0.0395,0.15787 0,0.2368 0,0.0395 -0.0789,0.15786 -0.0395,0.1184 -0.0395,0.27626 -0.0789,0.2368 -0.27626,0.3552 -0.27626,0.11839 -0.74985,-0.15787 -0.82878,-0.55252 -1.18398,-2.01275 -0.23679,-0.74985 -0.55252,-3.2362 -0.27626,-2.48635 -0.35519,-4.89376 -0.0789,-1.4997 -0.0789,-2.21009 -0.51306,0.0789 -1.14451,0.35519 -0.55252,0.27626 -0.67092,0.55252 -0.15786,0.19733 -0.51306,0.19733 -0.31572,0 -0.86824,-0.0789 -0.71039,-0.1184 -0.71039,-0.55252 0,-0.43412 0.39466,-0.86825 0.59199,-0.74985 1.53917,-1.18397 0.86824,-0.43413 1.89436,-0.55252 v -2.48635 -0.1184 q 0,-1.77596 1.10504,-1.77596 h 0.1184 q 0.63145,0 0.74985,0.35519 0.15786,0.31573 0.15786,1.38131 v 2.48634 q 1.18398,0 2.17062,0.19733 z"
       style="stroke-width:0.98664546"
       id="path4669" />
    <path
       d="m 308.36584,252.02871 q 0.1184,-0.0395 0.27626,-0.0395 0.74985,0 1.02611,2.17062 0.47359,3.55193 0.47359,6.15667 0,1.42077 -0.19733,3.31513 -0.19733,1.57863 -0.74985,2.9994 -0.0395,0.1184 -0.15786,0.39466 -0.1184,0.2368 -0.19733,0.35519 -0.1184,0.27626 -0.47359,0.67092 l -0.59199,0.59199 q -0.39466,0.31573 -0.55252,0.43412 -1.77596,1.26291 -3.74925,1.26291 -0.1184,0 -0.27626,-0.0395 -0.15787,0 -0.19733,0 -2.24956,-0.23679 -3.55193,-1.46023 -0.39466,-0.31573 -0.55252,-0.74985 -0.1184,-0.39466 0.1184,-0.47359 0.43412,-0.1184 1.18397,0 0.15787,0.0395 0.55252,0.15786 0.39466,0.0789 0.78932,0.19733 0.43413,0.0789 0.86825,0.15786 0.59199,0.1184 0.90771,0.1184 1.06558,0 2.05223,-0.51305 0.0789,-0.0395 0.23679,-0.1184 0.15786,-0.1184 0.2368,-0.15786 0.31572,-0.2368 0.51305,-0.39466 0.1184,-0.1184 0.35519,-0.39466 0.15787,-0.1184 0.31573,-0.47359 0.51306,-0.86825 0.78932,-2.64421 0,-0.27626 0.0395,-0.43412 -0.90771,0.82878 -2.01275,1.1445 -0.90772,0.27626 -1.65757,0.27626 -0.43412,0 -1.22344,-0.15786 -1.02611,-0.0789 -1.69703,-0.67092 -0.63145,-0.47359 -1.06558,-1.42077 -0.82878,-1.81542 -0.90771,-5.32788 0,-1.93383 0.1184,-2.88101 0.11839,-2.05222 1.30237,-2.05222 h 0.0789 q 0.82878,0.0789 0.82878,0.98665 0,0.23679 -0.0789,1.02611 -0.1184,1.77596 -0.1184,2.56528 v 0.55252 q 0,2.60474 0.63146,4.06498 0.35519,0.86824 0.90771,1.02611 0.86825,0.15786 1.26291,0.15786 0.31572,0 0.47359,-0.0395 1.22344,-0.15786 2.09169,-1.10504 0.63145,-0.63145 1.18397,-1.65756 0,-1.10505 -0.1184,-2.17062 -0.0789,-1.06558 -0.19733,-1.89436 l -0.0789,-0.86825 q -0.0789,-0.78932 -0.0789,-1.02611 0,-1.46024 0.86825,-1.6181 z"
       style="stroke-width:0.98664546"
       id="path4671" />
  </g>
</svg>
